# xmcd
#
# Track frame offsets:
# 150
# 14087
# 23112
# 33982
# 47687
# 59212
# 70617
# 83640
# 92135
# 102610
# 118640
# 128985
# 142270
# 153720
# 165780
# 177797
# 193267
# 203672
# 214650
# 223830
#
# Disc length: 3157 seconds
#
#
# Revision: 0
# Processed by: cddbd v1.5.1PL2 Copyright (c) Steve Scherf et al.
# Submitted via: FreeRIP 2.945 
#
DISCID=2a0c5314
DTITLE=Various  - 20 Bluegrass Originals - Hymns
DYEAR=2005
DGENRE=Gospel
TTITLE0=Stanley Brothers - Rank Strangers
TTITLE1=Carl Story - Light At The River
TTITLE2=Lewis Family - In The Garden
TTITLE3=Wade Mainer - He's Passing This Way
TTITLE4=Reno and Smiley - I'm Using My Bible For A Roadmap
TTITLE5=Acorn Sisters - Where Will I Shelter My Sheep
TTITLE6=Reno and Smiley - Someone Will Love Me In Heaven
TTITLE7=Moore and Napier - Shout And Sing
TTITLE8=Reno and Harrell - I'll Fly Away
TTITLE9=Jimmy Martin - White Dove
TTITLE10=Stanley Brothers - Jacob's Vision
TTITLE11=Reno and Smiley - Amazing Grace
TTITLE12=Lewis Family - Unclouded Day
TTITLE13=Bailes Brothers - Jesus Hold My Hand
TTITLE14=Stanley Brothers - Purple Robe
TTITLE15=Carl Story - Precious Memories
TTITLE16=Jim and Jesse - You Can't Love Jesus More Than Me
TTITLE17=Moore and Napier - Springtime In Heaven
TTITLE18=Lewis Family - Keep On The Firing Line
TTITLE19=Wilma Lee and Stoney Cooper - Walking My Lord Up Calvary Hill
EXTD=Gusto Deluxe
EXTT0=
EXTT1=
EXTT2=
EXTT3=
EXTT4=
EXTT5=
EXTT6=
EXTT7=
EXTT8=
EXTT9=
EXTT10=
EXTT11=
EXTT12=
EXTT13=
EXTT14=
EXTT15=
EXTT16=
EXTT17=
EXTT18=
EXTT19=
PLAYORDER=
